<svg width="580" height="315" viewBox="0 0 580 315" fill="none" xmlns="http://www.w3.org/2000/svg">
<g filter="url(#filter0_f_37_57)">
<path d="M80.3362 115.707L156.374 46.4676L262.142 42.2862L291.594 106.735L215.556 175.975L109.788 180.156L80.3362 115.707Z" stroke="url(#paint0_radial_37_57)" stroke-width="2"/>
</g>
<g filter="url(#filter1_f_37_57)">
<path d="M277.441 35.0299L353.479 -34.2097L459.247 -38.3912L488.698 26.0579L412.66 95.2976L306.892 99.479L277.441 35.0299Z" stroke="url(#paint1_radial_37_57)" stroke-width="2"/>
</g>
<g filter="url(#filter2_f_37_57)">
<path d="M30.4407 266.03L106.479 196.79L212.247 192.609L241.698 257.058L165.66 326.298L59.8921 330.479L30.4407 266.03Z" stroke="url(#paint2_radial_37_57)" stroke-width="2"/>
</g>
<g filter="url(#filter3_f_37_57)">
<path d="M184.441 336.03L260.479 266.79L366.247 262.609L395.698 327.058L319.66 396.298L213.892 400.479L184.441 336.03Z" stroke="url(#paint3_radial_37_57)" stroke-width="2"/>
</g>
<g filter="url(#filter4_f_37_57)">
<path d="M381.441 259.03L457.479 189.79L563.247 185.609L592.698 250.058L516.66 319.298L410.892 323.479L381.441 259.03Z" stroke="url(#paint4_radial_37_57)" stroke-width="2"/>
</g>
<g filter="url(#filter5_f_37_57)">
<path d="M426.441 105.03L502.479 35.7903L608.247 31.6088L637.698 96.0579L561.66 165.298L455.892 169.479L426.441 105.03Z" stroke="url(#paint5_radial_37_57)" stroke-width="2"/>
</g>
<path d="M80.3362 115.707L156.374 46.4676L262.142 42.2862L291.594 106.735L215.556 175.975L109.788 180.156L80.3362 115.707Z" stroke="url(#paint6_radial_37_57)" stroke-width="2"/>
<g filter="url(#filter6_f_37_57)">
<path d="M230.068 185.321L305.591 116.292L410.842 112.317L440.294 176.768L364.771 245.798L259.52 249.773L230.068 185.321Z" stroke="url(#paint7_linear_37_57)" stroke-width="2"/>
</g>
<path d="M230.068 185.321L305.591 116.292L410.842 112.317L440.294 176.768L364.771 245.798L259.52 249.773L230.068 185.321Z" stroke="url(#paint8_linear_37_57)" stroke-width="2"/>
<path d="M277.14 35.0299L353.178 -34.2097L458.946 -38.3912L488.397 26.0579L412.359 95.2976L306.591 99.479L277.14 35.0299Z" stroke="url(#paint9_linear_37_57)" stroke-width="2"/>
<path d="M31.3604 265.61L106.883 196.581L212.135 192.606L241.587 257.058L166.064 326.087L60.8129 330.062L31.3604 265.61Z" stroke="url(#paint10_linear_37_57)" stroke-width="2"/>
<path d="M184.239 336.959L260.277 267.719L366.045 263.538L395.496 327.987L319.458 397.227L213.69 401.408L184.239 336.959Z" stroke="url(#paint11_linear_37_57)" stroke-width="2"/>
<path d="M381.043 258.726L457.081 189.487L562.849 185.305L592.3 249.754L516.262 318.994L410.494 323.175L381.043 258.726Z" stroke="url(#paint12_radial_37_57)" stroke-width="2"/>
<path d="M427.413 104.256L502.936 35.2261L608.187 31.2511L637.64 95.7027L562.116 164.732L456.865 168.707L427.413 104.256Z" stroke="url(#paint13_linear_37_57)" stroke-width="2"/>
<path d="M231.578 151.781L241.359 168.442L247.669 145.693L231.578 151.781ZM231.578 151.781L266.285 96.9917M231.578 151.781L234.102 191.191M266.285 96.9917V117.177L285.532 100.837M266.285 96.9917L285.532 100.837M266.285 96.9917L247.669 117.177L230 171.326M266.285 96.9917L289.003 78.7285M266.285 96.9917L324.973 72M285.532 100.837L293.42 96.9917L289.003 78.7285M230 171.326L240.097 182.86M230 171.326L234.102 191.191M289.003 78.7285L342.642 76.4857M324.973 72L320.24 83.5346L344.535 86.4183L324.973 72ZM324.973 72L342.642 76.4857M342.642 76.4857L370.408 91.7814M390.917 103.079L385.553 84.8162M390.917 103.079L370.408 91.7814M390.917 103.079L398.49 113.653M390.917 103.079L402 104.09C400.767 107.137 398.339 113.317 398.49 113.653M385.553 84.8162L370.408 91.7814M385.553 84.8162L398.49 113.653M234.102 191.191L240.097 182.86M234.102 191.191L253.569 208L240.097 182.86" stroke="url(#paint14_linear_37_57)"/>
<g filter="url(#filter7_f_37_57)">
<ellipse cx="300.5" cy="113" rx="57.5" ry="52" fill="#2ED9FF" fill-opacity="0.96"/>
</g>
<circle cx="331.5" cy="173.5" r="96.5" fill="url(#paint15_radial_37_57)"/>
<circle cx="331.5" cy="173.5" r="96.5" fill="url(#paint16_radial_37_57)" fill-opacity="0.72"/>
<circle cx="266.5" cy="96.5" r="1.5" fill="#C5F8F8"/>
<circle cx="402" cy="104" r="1" fill="#849F9F"/>
<path d="M288.791 79.0047L294.165 104.158M288.791 79.0047L324.192 72M288.791 79.0047L267.614 97.9493M294.165 104.158L309.652 150.007M294.165 104.158L353.588 117.849M294.165 104.158L342.209 76.1392M294.165 104.158L246.436 116.894M294.165 104.158L260.344 158.285M309.652 150.007L357.381 179.3L353.588 117.849M309.652 150.007L353.588 117.849M309.652 150.007L260.344 158.285M309.652 150.007L299.538 206.045L260.344 158.285M353.588 117.849L342.209 76.1392M353.588 117.849L391.201 102.884M353.588 117.849L401 148.097L391.201 102.884M342.209 76.1392L384.88 85.3726M342.209 76.1392L324.192 72M246.436 116.894L260.344 158.285M246.436 116.894L231.264 150.962L230 170.384M246.436 116.894L267.614 97.9493M260.344 158.285L230 170.384M260.344 158.285L253.706 207L230 170.384M391.201 102.884L384.88 85.3726M391.201 102.884L401 104.158L384.88 85.3726M324.192 72L267.614 97.9493" stroke="url(#paint17_linear_37_57)"/>
<circle cx="294" cy="104" r="2" fill="white"/>
<circle cx="310" cy="150" r="2" fill="#B9B9B9"/>
<circle cx="260" cy="158" r="2" fill="#B9B9B9"/>
<circle cx="229.5" cy="170.5" r="1.5" fill="#B9B9B9"/>
<path d="M232 151C232 151.552 231.552 152 231 152C230.448 152 230 151.552 230 151C230 150.448 230.448 150 231 150C231.552 150 232 150.448 232 151Z" fill="#B9B9B9"/>
<circle cx="342" cy="76" r="2" fill="white"/>
<circle cx="325" cy="73" r="2" fill="white"/>
<circle cx="385.5" cy="85.5" r="1.5" fill="#B9B9B9"/>
<circle cx="288.5" cy="78.5" r="1.5" fill="white"/>
<circle cx="268.5" cy="97.5" r="1.5" fill="white"/>
<circle cx="246.5" cy="117.5" r="1.5" fill="white"/>
<circle cx="354" cy="118" r="2" fill="#B9B9B9"/>
<defs>
<filter id="filter0_f_37_57" x="64.1182" y="26.2754" width="243.693" height="169.892" filterUnits="userSpaceOnUse" color-interpolation-filters="sRGB">
<feFlood flood-opacity="0" result="BackgroundImageFix"/>
<feBlend mode="normal" in="SourceGraphic" in2="BackgroundImageFix" result="shape"/>
<feGaussianBlur stdDeviation="7.5" result="effect1_foregroundBlur_37_57"/>
</filter>
<filter id="filter1_f_37_57" x="261.223" y="-54.402" width="243.693" height="169.892" filterUnits="userSpaceOnUse" color-interpolation-filters="sRGB">
<feFlood flood-opacity="0" result="BackgroundImageFix"/>
<feBlend mode="normal" in="SourceGraphic" in2="BackgroundImageFix" result="shape"/>
<feGaussianBlur stdDeviation="7.5" result="effect1_foregroundBlur_37_57"/>
</filter>
<filter id="filter2_f_37_57" x="14.2227" y="176.598" width="243.693" height="169.892" filterUnits="userSpaceOnUse" color-interpolation-filters="sRGB">
<feFlood flood-opacity="0" result="BackgroundImageFix"/>
<feBlend mode="normal" in="SourceGraphic" in2="BackgroundImageFix" result="shape"/>
<feGaussianBlur stdDeviation="7.5" result="effect1_foregroundBlur_37_57"/>
</filter>
<filter id="filter3_f_37_57" x="168.223" y="246.598" width="243.693" height="169.892" filterUnits="userSpaceOnUse" color-interpolation-filters="sRGB">
<feFlood flood-opacity="0" result="BackgroundImageFix"/>
<feBlend mode="normal" in="SourceGraphic" in2="BackgroundImageFix" result="shape"/>
<feGaussianBlur stdDeviation="7.5" result="effect1_foregroundBlur_37_57"/>
</filter>
<filter id="filter4_f_37_57" x="367.223" y="171.598" width="239.693" height="165.892" filterUnits="userSpaceOnUse" color-interpolation-filters="sRGB">
<feFlood flood-opacity="0" result="BackgroundImageFix"/>
<feBlend mode="normal" in="SourceGraphic" in2="BackgroundImageFix" result="shape"/>
<feGaussianBlur stdDeviation="6.5" result="effect1_foregroundBlur_37_57"/>
</filter>
<filter id="filter5_f_37_57" x="410.223" y="15.598" width="243.693" height="169.892" filterUnits="userSpaceOnUse" color-interpolation-filters="sRGB">
<feFlood flood-opacity="0" result="BackgroundImageFix"/>
<feBlend mode="normal" in="SourceGraphic" in2="BackgroundImageFix" result="shape"/>
<feGaussianBlur stdDeviation="7.5" result="effect1_foregroundBlur_37_57"/>
</filter>
<filter id="filter6_f_37_57" x="207.85" y="90.3069" width="254.662" height="181.475" filterUnits="userSpaceOnUse" color-interpolation-filters="sRGB">
<feFlood flood-opacity="0" result="BackgroundImageFix"/>
<feBlend mode="normal" in="SourceGraphic" in2="BackgroundImageFix" result="shape"/>
<feGaussianBlur stdDeviation="10.5" result="effect1_foregroundBlur_37_57"/>
</filter>
<filter id="filter7_f_37_57" x="45" y="-137" width="511" height="500" filterUnits="userSpaceOnUse" color-interpolation-filters="sRGB">
<feFlood flood-opacity="0" result="BackgroundImageFix"/>
<feBlend mode="normal" in="SourceGraphic" in2="BackgroundImageFix" result="shape"/>
<feGaussianBlur stdDeviation="99" result="effect1_foregroundBlur_37_57"/>
</filter>
<radialGradient id="paint0_radial_37_57" cx="0" cy="0" r="1" gradientUnits="userSpaceOnUse" gradientTransform="translate(257.291 132.913) rotate(-153.435) scale(144.867 236.492)">
<stop offset="0.221107" stop-color="#0FF1FF"/>
<stop offset="0.599559" stop-color="#0839E8" stop-opacity="0.42"/>
<stop offset="1" stop-color="#C438BE" stop-opacity="0.77"/>
</radialGradient>
<radialGradient id="paint1_radial_37_57" cx="0" cy="0" r="1" gradientUnits="userSpaceOnUse" gradientTransform="translate(454.395 52.2352) rotate(-153.435) scale(144.867 236.492)">
<stop offset="0.221107" stop-color="#0FF1FF"/>
<stop offset="0.599559" stop-color="#0839E8" stop-opacity="0.42"/>
<stop offset="1" stop-color="#C438BE" stop-opacity="0.77"/>
</radialGradient>
<radialGradient id="paint2_radial_37_57" cx="0" cy="0" r="1" gradientUnits="userSpaceOnUse" gradientTransform="translate(207.395 283.235) rotate(-153.435) scale(144.867 236.492)">
<stop offset="0.221107" stop-color="#0FF1FF"/>
<stop offset="0.599559" stop-color="#0839E8" stop-opacity="0.42"/>
<stop offset="1" stop-color="#C438BE" stop-opacity="0.77"/>
</radialGradient>
<radialGradient id="paint3_radial_37_57" cx="0" cy="0" r="1" gradientUnits="userSpaceOnUse" gradientTransform="translate(361.395 353.235) rotate(-153.435) scale(144.867 236.492)">
<stop offset="0.221107" stop-color="#0FF1FF"/>
<stop offset="0.599559" stop-color="#0839E8" stop-opacity="0.42"/>
<stop offset="1" stop-color="#C438BE" stop-opacity="0.77"/>
</radialGradient>
<radialGradient id="paint4_radial_37_57" cx="0" cy="0" r="1" gradientUnits="userSpaceOnUse" gradientTransform="translate(558.395 276.235) rotate(-153.435) scale(144.867 236.492)">
<stop stop-color="#E241DC" stop-opacity="0.72"/>
<stop offset="0.599559" stop-color="#0839E8" stop-opacity="0.42"/>
<stop offset="1" stop-color="#0FF1FF"/>
</radialGradient>
<radialGradient id="paint5_radial_37_57" cx="0" cy="0" r="1" gradientUnits="userSpaceOnUse" gradientTransform="translate(603.395 122.235) rotate(-153.435) scale(144.867 236.492)">
<stop offset="0.221107" stop-color="#0FF1FF"/>
<stop offset="0.599559" stop-color="#0839E8" stop-opacity="0.42"/>
<stop offset="1" stop-color="#C438BE" stop-opacity="0.77"/>
</radialGradient>
<radialGradient id="paint6_radial_37_57" cx="0" cy="0" r="1" gradientUnits="userSpaceOnUse" gradientTransform="translate(257.291 132.913) rotate(-153.435) scale(144.867 236.492)">
<stop offset="0.221107" stop-color="#0FF1FF"/>
<stop offset="0.599559" stop-color="#0839E8" stop-opacity="0.42"/>
<stop offset="1" stop-color="#C438BE" stop-opacity="0.77"/>
</radialGradient>
<linearGradient id="paint7_linear_37_57" x1="328" y1="89" x2="360.172" y2="235.444" gradientUnits="userSpaceOnUse">
<stop offset="0.615131" stop-color="#00F0FF"/>
<stop offset="1" stop-opacity="0.36"/>
</linearGradient>
<linearGradient id="paint8_linear_37_57" x1="314.542" y1="192.758" x2="162.891" y2="331.58" gradientUnits="userSpaceOnUse">
<stop offset="0.271587" stop-color="#00F0FF"/>
<stop offset="0.832186" stop-color="#CB2AEF" stop-opacity="0.764874"/>
<stop offset="1" stop-color="#D727D0" stop-opacity="0.73"/>
<stop offset="1" stop-color="#0839E8" stop-opacity="0.36"/>
</linearGradient>
<linearGradient id="paint9_linear_37_57" x1="360.616" y1="114.069" x2="395.106" y2="-27.2937" gradientUnits="userSpaceOnUse">
<stop stop-color="#41F4FF"/>
<stop offset="0.568072" stop-color="#0839E8"/>
<stop offset="1" stop-color="#833880"/>
</linearGradient>
<linearGradient id="paint10_linear_37_57" x1="250.232" y1="244.348" x2="53.692" y2="318.624" gradientUnits="userSpaceOnUse">
<stop stop-color="#AA26AD"/>
<stop offset="0.195133" stop-color="#41F4FF"/>
<stop offset="0.445404" stop-color="#0839E8" stop-opacity="0.46"/>
<stop offset="1" stop-color="#9D2D99" stop-opacity="0.83"/>
</linearGradient>
<linearGradient id="paint11_linear_37_57" x1="321.409" y1="270.802" x2="301.162" y2="417.725" gradientUnits="userSpaceOnUse">
<stop stop-color="#41F4FF"/>
<stop offset="0.568072" stop-color="#0839E8" stop-opacity="0.19"/>
<stop offset="1" stop-color="#D727D0" stop-opacity="0.56"/>
<stop offset="1" stop-color="#F82AEF" stop-opacity="0.56"/>
</linearGradient>
<radialGradient id="paint12_radial_37_57" cx="0" cy="0" r="1" gradientUnits="userSpaceOnUse" gradientTransform="translate(394.174 224.454) rotate(39.4281) scale(162.771 234.861)">
<stop offset="0.372904" stop-color="#41F4FF"/>
<stop offset="0.730991" stop-color="#0839E8" stop-opacity="0.36"/>
<stop offset="1" stop-color="#8B1E87" stop-opacity="0.19"/>
</radialGradient>
<linearGradient id="paint13_linear_37_57" x1="466.05" y1="149.82" x2="558.423" y2="37.6092" gradientUnits="userSpaceOnUse">
<stop stop-color="#41F4FF"/>
<stop offset="0.568072" stop-color="#0839E8" stop-opacity="0.56"/>
<stop offset="1" stop-color="#DB4DD5" stop-opacity="0.56"/>
</linearGradient>
<linearGradient id="paint14_linear_37_57" x1="284.5" y1="79" x2="349.117" y2="205.172" gradientUnits="userSpaceOnUse">
<stop offset="0.216122" stop-color="#7AA3AC"/>
<stop offset="0.588925" stop-color="#949494" stop-opacity="0"/>
<stop offset="0.946353" stop-color="#949494" stop-opacity="0"/>
</linearGradient>
<radialGradient id="paint15_radial_37_57" cx="0" cy="0" r="1" gradientUnits="userSpaceOnUse" gradientTransform="translate(292.405 97.2897) rotate(66.055) scale(161.62 294.784)">
<stop stop-color="#F07DF2"/>
<stop offset="0.135765" stop-color="#B05AB8"/>
<stop offset="0.315115" stop-color="#890E9D"/>
<stop offset="0.450379" stop-color="#5F2860"/>
<stop offset="0.559772" stop-color="#4E1753" stop-opacity="0.72"/>
<stop offset="0.694537" stop-color="#290230" stop-opacity="0.46"/>
<stop offset="0.858156" stop-color="#2B152F" stop-opacity="0"/>
</radialGradient>
<radialGradient id="paint16_radial_37_57" cx="0" cy="0" r="1" gradientUnits="userSpaceOnUse" gradientTransform="translate(292.405 97.2898) rotate(61.5629) scale(163.998 293.137)">
<stop offset="0.0309006" stop-color="#7DF2EB"/>
<stop offset="0.202293" stop-color="#529B9B"/>
<stop offset="0.338268" stop-color="#4B7572"/>
<stop offset="0.468986" stop-color="#355450"/>
<stop offset="0.603879" stop-color="#243E3C"/>
<stop offset="0.724659" stop-color="#1E3332" stop-opacity="0.75"/>
<stop offset="0.812763" stop-color="#00312E" stop-opacity="0"/>
</radialGradient>
<linearGradient id="paint17_linear_37_57" x1="283.5" y1="78" x2="353.5" y2="207" gradientUnits="userSpaceOnUse">
<stop stop-color="white"/>
<stop offset="0.413469" stop-color="white" stop-opacity="0.46"/>
<stop offset="0.536112" stop-color="white" stop-opacity="0.05"/>
<stop offset="0.720128" stop-color="white" stop-opacity="0"/>
</linearGradient>
</defs>
</svg>
