<svg width="667" height="435" viewBox="0 0 667 435" fill="none" xmlns="http://www.w3.org/2000/svg">
<g filter="url(#filter0_f_37_9)">
<path d="M188.946 126.421L339 39.7865L489.054 126.421V299.688L339 386.322L188.946 299.688V126.421Z" stroke="url(#paint0_linear_37_9)" stroke-width="3"/>
</g>
<g filter="url(#filter1_f_37_9)">
<path d="M27.9456 408.42L178 321.786L328.054 408.42V581.688L178 668.322L27.9456 581.688V408.42Z" stroke="url(#paint1_linear_37_9)" stroke-width="3"/>
</g>
<g filter="url(#filter2_f_37_9)">
<path d="M352.946 17.6884L352.946 -155.58L503 -242.213L653.054 -155.58L653.054 17.6884L503 104.322L352.946 17.6884Z" stroke="url(#paint2_linear_37_9)" stroke-width="3"/>
</g>
<g filter="url(#filter3_f_37_9)">
<path d="M517.946 126.421L668 39.7865L818.054 126.421V299.688L668 386.322L517.946 299.688V126.421Z" stroke="url(#paint3_linear_37_9)" stroke-width="3"/>
</g>
<path d="M188.946 126.421L339 39.7865L489.054 126.421V299.688L339 386.322L188.946 299.688V126.421Z" stroke="url(#paint4_linear_37_9)" stroke-width="3"/>
<path d="M27.9456 408.42L178 321.786L328.054 408.42V581.688L178 668.322L27.9456 581.688V408.42Z" stroke="url(#paint5_linear_37_9)" stroke-width="3"/>
<path d="M517.946 126.421L668 39.7865L818.054 126.421V299.688L668 386.322L517.946 299.688V126.421Z" stroke="url(#paint6_linear_37_9)" stroke-width="3"/>
<path d="M352.946 -155.58L503 -242.214L653.054 -155.58V17.6884L503 104.322L352.946 17.6884V-155.58Z" stroke="url(#paint7_linear_37_9)" stroke-width="3"/>
<path d="M334.027 75.9055C337.107 74.1396 340.893 74.1396 343.973 75.9055L456.083 140.173C459.192 141.955 461.11 145.265 461.11 148.849V277.26C461.11 280.844 459.192 284.154 456.083 285.936L343.973 350.203C340.893 351.969 337.107 351.969 334.027 350.203L221.917 285.936C218.808 284.154 216.89 280.844 216.89 277.26V148.849C216.89 145.265 218.808 141.955 221.917 140.173L334.027 75.9055Z" fill="url(#paint8_linear_37_9)"/>
<path d="M307.951 189.3C309.418 189.3 310.538 189.66 311.311 190.38C312.098 191.1 312.491 192.173 312.491 193.6V200H310.671V198.6C310.351 199.093 309.891 199.473 309.291 199.74C308.705 199.993 308.005 200.12 307.191 200.12C306.005 200.12 305.051 199.833 304.331 199.26C303.625 198.687 303.271 197.933 303.271 197C303.271 196.067 303.611 195.32 304.291 194.76C304.971 194.187 306.051 193.9 307.531 193.9H310.571V193.52C310.571 192.693 310.331 192.06 309.851 191.62C309.371 191.18 308.665 190.96 307.731 190.96C307.105 190.96 306.491 191.067 305.891 191.28C305.291 191.48 304.785 191.753 304.371 192.1L303.571 190.66C304.118 190.22 304.771 189.887 305.531 189.66C306.291 189.42 307.098 189.3 307.951 189.3ZM307.511 198.64C308.245 198.64 308.878 198.48 309.411 198.16C309.945 197.827 310.331 197.36 310.571 196.76V195.28H307.611C305.985 195.28 305.171 195.827 305.171 196.92C305.171 197.453 305.378 197.873 305.791 198.18C306.205 198.487 306.778 198.64 307.511 198.64ZM317.885 191.18C318.218 190.567 318.711 190.1 319.365 189.78C320.018 189.46 320.811 189.3 321.745 189.3V191.16C321.638 191.147 321.491 191.14 321.305 191.14C320.265 191.14 319.445 191.453 318.845 192.08C318.258 192.693 317.965 193.573 317.965 194.72V200H316.045V189.4H317.885V191.18ZM330.501 199.38C330.221 199.62 329.874 199.807 329.461 199.94C329.047 200.06 328.621 200.12 328.181 200.12C327.114 200.12 326.287 199.833 325.701 199.26C325.114 198.687 324.821 197.867 324.821 196.8V190.98H323.021V189.4H324.821V187.08H326.741V189.4H329.781V190.98H326.741V196.72C326.741 197.293 326.881 197.733 327.161 198.04C327.454 198.347 327.867 198.5 328.401 198.5C328.987 198.5 329.487 198.333 329.901 198L330.501 199.38ZM332.822 189.4H334.742V200H332.822V189.4ZM333.782 187.36C333.409 187.36 333.095 187.24 332.842 187C332.602 186.76 332.482 186.467 332.482 186.12C332.482 185.773 332.602 185.48 332.842 185.24C333.095 184.987 333.409 184.86 333.782 184.86C334.155 184.86 334.462 184.98 334.702 185.22C334.955 185.447 335.082 185.733 335.082 186.08C335.082 186.44 334.955 186.747 334.702 187C334.462 187.24 334.155 187.36 333.782 187.36ZM343.028 200.12C341.948 200.12 340.981 199.887 340.128 199.42C339.288 198.953 338.628 198.313 338.148 197.5C337.668 196.673 337.428 195.74 337.428 194.7C337.428 193.66 337.668 192.733 338.148 191.92C338.628 191.093 339.288 190.453 340.128 190C340.981 189.533 341.948 189.3 343.028 189.3C343.988 189.3 344.841 189.493 345.588 189.88C346.348 190.267 346.935 190.827 347.348 191.56L345.888 192.5C345.555 191.993 345.141 191.613 344.648 191.36C344.155 191.107 343.608 190.98 343.008 190.98C342.315 190.98 341.688 191.133 341.128 191.44C340.581 191.747 340.148 192.187 339.828 192.76C339.521 193.32 339.368 193.967 339.368 194.7C339.368 195.447 339.521 196.107 339.828 196.68C340.148 197.24 340.581 197.673 341.128 197.98C341.688 198.287 342.315 198.44 343.008 198.44C343.608 198.44 344.155 198.313 344.648 198.06C345.141 197.807 345.555 197.427 345.888 196.92L347.348 197.84C346.935 198.573 346.348 199.14 345.588 199.54C344.841 199.927 343.988 200.12 343.028 200.12ZM349.697 185.16H351.617V200H349.697V185.16ZM364.863 194.76C364.863 194.907 364.85 195.1 364.823 195.34H356.223C356.343 196.273 356.75 197.027 357.443 197.6C358.15 198.16 359.023 198.44 360.063 198.44C361.33 198.44 362.35 198.013 363.123 197.16L364.183 198.4C363.703 198.96 363.103 199.387 362.383 199.68C361.676 199.973 360.883 200.12 360.003 200.12C358.883 200.12 357.89 199.893 357.023 199.44C356.156 198.973 355.483 198.327 355.003 197.5C354.536 196.673 354.303 195.74 354.303 194.7C354.303 193.673 354.53 192.747 354.983 191.92C355.45 191.093 356.083 190.453 356.883 190C357.696 189.533 358.61 189.3 359.623 189.3C360.636 189.3 361.536 189.533 362.323 190C363.123 190.453 363.743 191.093 364.183 191.92C364.636 192.747 364.863 193.693 364.863 194.76ZM359.623 190.92C358.703 190.92 357.93 191.2 357.303 191.76C356.69 192.32 356.33 193.053 356.223 193.96H363.023C362.916 193.067 362.55 192.34 361.923 191.78C361.31 191.207 360.543 190.92 359.623 190.92ZM370.569 200.12C369.702 200.12 368.869 200.007 368.069 199.78C367.269 199.54 366.642 199.24 366.189 198.88L366.989 197.36C367.456 197.693 368.022 197.96 368.689 198.16C369.356 198.36 370.029 198.46 370.709 198.46C372.389 198.46 373.229 197.98 373.229 197.02C373.229 196.7 373.116 196.447 372.889 196.26C372.662 196.073 372.376 195.94 372.029 195.86C371.696 195.767 371.216 195.667 370.589 195.56C369.736 195.427 369.036 195.273 368.489 195.1C367.956 194.927 367.496 194.633 367.109 194.22C366.722 193.807 366.529 193.227 366.529 192.48C366.529 191.52 366.929 190.753 367.729 190.18C368.529 189.593 369.602 189.3 370.949 189.3C371.656 189.3 372.362 189.387 373.069 189.56C373.776 189.733 374.356 189.967 374.809 190.26L373.989 191.78C373.122 191.22 372.102 190.94 370.929 190.94C370.116 190.94 369.496 191.073 369.069 191.34C368.642 191.607 368.429 191.96 368.429 192.4C368.429 192.747 368.549 193.02 368.789 193.22C369.029 193.42 369.322 193.567 369.669 193.66C370.029 193.753 370.529 193.86 371.169 193.98C372.022 194.127 372.709 194.287 373.229 194.46C373.762 194.62 374.216 194.9 374.589 195.3C374.962 195.7 375.149 196.26 375.149 196.98C375.149 197.94 374.736 198.707 373.909 199.28C373.096 199.84 371.982 200.12 370.569 200.12ZM325.051 213.3C326.518 213.3 327.638 213.66 328.411 214.38C329.198 215.1 329.591 216.173 329.591 217.6V224H327.771V222.6C327.451 223.093 326.991 223.473 326.391 223.74C325.804 223.993 325.104 224.12 324.291 224.12C323.104 224.12 322.151 223.833 321.431 223.26C320.724 222.687 320.371 221.933 320.371 221C320.371 220.067 320.711 219.32 321.391 218.76C322.071 218.187 323.151 217.9 324.631 217.9H327.671V217.52C327.671 216.693 327.431 216.06 326.951 215.62C326.471 215.18 325.764 214.96 324.831 214.96C324.204 214.96 323.591 215.067 322.991 215.28C322.391 215.48 321.884 215.753 321.471 216.1L320.671 214.66C321.218 214.22 321.871 213.887 322.631 213.66C323.391 213.42 324.198 213.3 325.051 213.3ZM324.611 222.64C325.344 222.64 325.978 222.48 326.511 222.16C327.044 221.827 327.431 221.36 327.671 220.76V219.28H324.711C323.084 219.28 322.271 219.827 322.271 220.92C322.271 221.453 322.478 221.873 322.891 222.18C323.304 222.487 323.878 222.64 324.611 222.64ZM338.804 213.3C340.151 213.3 341.218 213.693 342.004 214.48C342.804 215.253 343.204 216.393 343.204 217.9V224H341.284V218.12C341.284 217.093 341.038 216.32 340.544 215.8C340.051 215.28 339.344 215.02 338.424 215.02C337.384 215.02 336.564 215.327 335.964 215.94C335.364 216.54 335.064 217.407 335.064 218.54V224H333.144V213.4H334.984V215C335.371 214.453 335.891 214.033 336.544 213.74C337.211 213.447 337.964 213.3 338.804 213.3ZM356.816 209.16V224H354.976V222.32C354.549 222.907 354.009 223.353 353.356 223.66C352.703 223.967 351.983 224.12 351.196 224.12C350.169 224.12 349.249 223.893 348.436 223.44C347.623 222.987 346.983 222.353 346.516 221.54C346.063 220.713 345.836 219.767 345.836 218.7C345.836 217.633 346.063 216.693 346.516 215.88C346.983 215.067 347.623 214.433 348.436 213.98C349.249 213.527 350.169 213.3 351.196 213.3C351.956 213.3 352.656 213.447 353.296 213.74C353.936 214.02 354.469 214.44 354.896 215V209.16H356.816ZM351.356 222.44C352.023 222.44 352.629 222.287 353.176 221.98C353.723 221.66 354.149 221.22 354.456 220.66C354.763 220.087 354.916 219.433 354.916 218.7C354.916 217.967 354.763 217.32 354.456 216.76C354.149 216.187 353.723 215.747 353.176 215.44C352.629 215.133 352.023 214.98 351.356 214.98C350.676 214.98 350.063 215.133 349.516 215.44C348.983 215.747 348.556 216.187 348.236 216.76C347.929 217.32 347.776 217.967 347.776 218.7C347.776 219.433 347.929 220.087 348.236 220.66C348.556 221.22 348.983 221.66 349.516 221.98C350.063 222.287 350.676 222.44 351.356 222.44ZM305.62 237.3C306.646 237.3 307.566 237.527 308.38 237.98C309.193 238.433 309.826 239.067 310.28 239.88C310.746 240.693 310.98 241.633 310.98 242.7C310.98 243.767 310.746 244.713 310.28 245.54C309.826 246.353 309.193 246.987 308.38 247.44C307.566 247.893 306.646 248.12 305.62 248.12C304.86 248.12 304.16 247.973 303.52 247.68C302.893 247.387 302.36 246.96 301.92 246.4V251.88H300V237.4H301.84V239.08C302.266 238.493 302.806 238.053 303.46 237.76C304.113 237.453 304.833 237.3 305.62 237.3ZM305.46 246.44C306.14 246.44 306.746 246.287 307.28 245.98C307.826 245.66 308.253 245.22 308.56 244.66C308.88 244.087 309.04 243.433 309.04 242.7C309.04 241.967 308.88 241.32 308.56 240.76C308.253 240.187 307.826 239.747 307.28 239.44C306.746 239.133 306.14 238.98 305.46 238.98C304.793 238.98 304.186 239.14 303.64 239.46C303.106 239.767 302.68 240.2 302.36 240.76C302.053 241.32 301.9 241.967 301.9 242.7C301.9 243.433 302.053 244.087 302.36 244.66C302.666 245.22 303.093 245.66 303.64 245.98C304.186 246.287 304.793 246.44 305.46 246.44ZM313.633 233.16H315.553V248H313.633V233.16ZM323.078 237.3C324.545 237.3 325.665 237.66 326.438 238.38C327.225 239.1 327.618 240.173 327.618 241.6V248H325.798V246.6C325.478 247.093 325.018 247.473 324.418 247.74C323.832 247.993 323.132 248.12 322.318 248.12C321.132 248.12 320.178 247.833 319.458 247.26C318.752 246.687 318.398 245.933 318.398 245C318.398 244.067 318.738 243.32 319.418 242.76C320.098 242.187 321.178 241.9 322.658 241.9H325.698V241.52C325.698 240.693 325.458 240.06 324.978 239.62C324.498 239.18 323.792 238.96 322.858 238.96C322.232 238.96 321.618 239.067 321.018 239.28C320.418 239.48 319.912 239.753 319.498 240.1L318.698 238.66C319.245 238.22 319.898 237.887 320.658 237.66C321.418 237.42 322.225 237.3 323.078 237.3ZM322.638 246.64C323.372 246.64 324.005 246.48 324.538 246.16C325.072 245.827 325.458 245.36 325.698 244.76V243.28H322.738C321.112 243.28 320.298 243.827 320.298 244.92C320.298 245.453 320.505 245.873 320.918 246.18C321.332 246.487 321.905 246.64 322.638 246.64ZM340.356 237.4L335.216 249.06C334.763 250.14 334.23 250.9 333.616 251.34C333.016 251.78 332.29 252 331.436 252C330.916 252 330.41 251.913 329.916 251.74C329.436 251.58 329.036 251.34 328.716 251.02L329.536 249.58C330.083 250.1 330.716 250.36 331.436 250.36C331.903 250.36 332.29 250.233 332.596 249.98C332.916 249.74 333.203 249.32 333.456 248.72L333.796 247.98L329.116 237.4H331.116L334.816 245.88L338.476 237.4H340.356ZM342.148 233.16H344.068V248H342.148V233.16ZM347.734 237.4H349.654V248H347.734V237.4ZM348.694 235.36C348.321 235.36 348.007 235.24 347.754 235C347.514 234.76 347.394 234.467 347.394 234.12C347.394 233.773 347.514 233.48 347.754 233.24C348.007 232.987 348.321 232.86 348.694 232.86C349.067 232.86 349.374 232.98 349.614 233.22C349.867 233.447 349.994 233.733 349.994 234.08C349.994 234.44 349.867 234.747 349.614 235C349.374 235.24 349.067 235.36 348.694 235.36ZM356.36 248.12C355.493 248.12 354.66 248.007 353.86 247.78C353.06 247.54 352.433 247.24 351.98 246.88L352.78 245.36C353.247 245.693 353.813 245.96 354.48 246.16C355.147 246.36 355.82 246.46 356.5 246.46C358.18 246.46 359.02 245.98 359.02 245.02C359.02 244.7 358.907 244.447 358.68 244.26C358.453 244.073 358.167 243.94 357.82 243.86C357.487 243.767 357.007 243.667 356.38 243.56C355.527 243.427 354.827 243.273 354.28 243.1C353.747 242.927 353.287 242.633 352.9 242.22C352.513 241.807 352.32 241.227 352.32 240.48C352.32 239.52 352.72 238.753 353.52 238.18C354.32 237.593 355.393 237.3 356.74 237.3C357.447 237.3 358.153 237.387 358.86 237.56C359.567 237.733 360.147 237.967 360.6 238.26L359.78 239.78C358.913 239.22 357.893 238.94 356.72 238.94C355.907 238.94 355.287 239.073 354.86 239.34C354.433 239.607 354.22 239.96 354.22 240.4C354.22 240.747 354.34 241.02 354.58 241.22C354.82 241.42 355.113 241.567 355.46 241.66C355.82 241.753 356.32 241.86 356.96 241.98C357.813 242.127 358.5 242.287 359.02 242.46C359.553 242.62 360.007 242.9 360.38 243.3C360.753 243.7 360.94 244.26 360.94 244.98C360.94 245.94 360.527 246.707 359.7 247.28C358.887 247.84 357.773 248.12 356.36 248.12ZM369.3 247.38C369.02 247.62 368.673 247.807 368.26 247.94C367.846 248.06 367.42 248.12 366.98 248.12C365.913 248.12 365.086 247.833 364.5 247.26C363.913 246.687 363.62 245.867 363.62 244.8V238.98H361.82V237.4H363.62V235.08H365.54V237.4H368.58V238.98H365.54V244.72C365.54 245.293 365.68 245.733 365.96 246.04C366.253 246.347 366.666 246.5 367.2 246.5C367.786 246.5 368.286 246.333 368.7 246L369.3 247.38ZM374.661 248.12C373.794 248.12 372.961 248.007 372.161 247.78C371.361 247.54 370.734 247.24 370.281 246.88L371.081 245.36C371.547 245.693 372.114 245.96 372.781 246.16C373.447 246.36 374.121 246.46 374.801 246.46C376.481 246.46 377.321 245.98 377.321 245.02C377.321 244.7 377.207 244.447 376.981 244.26C376.754 244.073 376.467 243.94 376.121 243.86C375.787 243.767 375.307 243.667 374.681 243.56C373.827 243.427 373.127 243.273 372.581 243.1C372.047 242.927 371.587 242.633 371.201 242.22C370.814 241.807 370.621 241.227 370.621 240.48C370.621 239.52 371.021 238.753 371.821 238.18C372.621 237.593 373.694 237.3 375.041 237.3C375.747 237.3 376.454 237.387 377.161 237.56C377.867 237.733 378.447 237.967 378.901 238.26L378.081 239.78C377.214 239.22 376.194 238.94 375.021 238.94C374.207 238.94 373.587 239.073 373.161 239.34C372.734 239.607 372.521 239.96 372.521 240.4C372.521 240.747 372.641 241.02 372.881 241.22C373.121 241.42 373.414 241.567 373.761 241.66C374.121 241.753 374.621 241.86 375.261 241.98C376.114 242.127 376.801 242.287 377.321 242.46C377.854 242.62 378.307 242.9 378.681 243.3C379.054 243.7 379.241 244.26 379.241 244.98C379.241 245.94 378.827 246.707 378.001 247.28C377.187 247.84 376.074 248.12 374.661 248.12Z" fill="url(#paint9_linear_37_9)"/>
<defs>
<filter id="filter0_f_37_9" x="161.446" y="12.0545" width="355.109" height="402" filterUnits="userSpaceOnUse" color-interpolation-filters="sRGB">
<feFlood flood-opacity="0" result="BackgroundImageFix"/>
<feBlend mode="normal" in="SourceGraphic" in2="BackgroundImageFix" result="shape"/>
<feGaussianBlur stdDeviation="13" result="effect1_foregroundBlur_37_9"/>
</filter>
<filter id="filter1_f_37_9" x="0.445557" y="294.054" width="355.109" height="402" filterUnits="userSpaceOnUse" color-interpolation-filters="sRGB">
<feFlood flood-opacity="0" result="BackgroundImageFix"/>
<feBlend mode="normal" in="SourceGraphic" in2="BackgroundImageFix" result="shape"/>
<feGaussianBlur stdDeviation="13" result="effect1_foregroundBlur_37_9"/>
</filter>
<filter id="filter2_f_37_9" x="325.446" y="-269.946" width="355.109" height="402" filterUnits="userSpaceOnUse" color-interpolation-filters="sRGB">
<feFlood flood-opacity="0" result="BackgroundImageFix"/>
<feBlend mode="normal" in="SourceGraphic" in2="BackgroundImageFix" result="shape"/>
<feGaussianBlur stdDeviation="13" result="effect1_foregroundBlur_37_9"/>
</filter>
<filter id="filter3_f_37_9" x="490.446" y="12.0545" width="355.109" height="402" filterUnits="userSpaceOnUse" color-interpolation-filters="sRGB">
<feFlood flood-opacity="0" result="BackgroundImageFix"/>
<feBlend mode="normal" in="SourceGraphic" in2="BackgroundImageFix" result="shape"/>
<feGaussianBlur stdDeviation="13" result="effect1_foregroundBlur_37_9"/>
</filter>
<linearGradient id="paint0_linear_37_9" x1="179.53" y1="118.562" x2="499.257" y2="304.367" gradientUnits="userSpaceOnUse">
<stop stop-color="#41F4FF"/>
<stop offset="0.568072" stop-color="#0839E8" stop-opacity="0.520833"/>
<stop offset="1" stop-color="#D727D0" stop-opacity="0.38"/>
</linearGradient>
<linearGradient id="paint1_linear_37_9" x1="18.5303" y1="400.562" x2="338.257" y2="586.367" gradientUnits="userSpaceOnUse">
<stop stop-color="#41F4FF"/>
<stop offset="0.568072" stop-color="#0839E8" stop-opacity="0.520833"/>
<stop offset="1" stop-color="#D727D0" stop-opacity="0.38"/>
</linearGradient>
<linearGradient id="paint2_linear_37_9" x1="598.995" y1="-220.214" x2="501.732" y2="106.008" gradientUnits="userSpaceOnUse">
<stop stop-color="#41F4FF" stop-opacity="0"/>
<stop offset="0.568072" stop-color="#0839E8" stop-opacity="0.52"/>
<stop offset="1" stop-color="#D727D0" stop-opacity="0.98"/>
</linearGradient>
<linearGradient id="paint3_linear_37_9" x1="847" y1="220.554" x2="515.852" y2="299.433" gradientUnits="userSpaceOnUse">
<stop stop-color="#41F4FF" stop-opacity="0"/>
<stop offset="0.568072" stop-color="#0839E8" stop-opacity="0.52"/>
<stop offset="1" stop-color="#D727D0" stop-opacity="0.98"/>
</linearGradient>
<linearGradient id="paint4_linear_37_9" x1="179.53" y1="118.562" x2="499.257" y2="304.367" gradientUnits="userSpaceOnUse">
<stop stop-color="#41F4FF"/>
<stop offset="0.50639" stop-color="#0839E8" stop-opacity="0.42"/>
<stop offset="1" stop-color="#D727D0" stop-opacity="0.38"/>
</linearGradient>
<linearGradient id="paint5_linear_37_9" x1="18.5303" y1="400.562" x2="338.257" y2="586.367" gradientUnits="userSpaceOnUse">
<stop stop-color="#41F4FF"/>
<stop offset="0.568072" stop-color="#0839E8" stop-opacity="0.520833"/>
<stop offset="1" stop-color="#D727D0" stop-opacity="0.38"/>
</linearGradient>
<linearGradient id="paint6_linear_37_9" x1="743.5" y1="124.054" x2="515.671" y2="299.627" gradientUnits="userSpaceOnUse">
<stop stop-color="#41F4FF" stop-opacity="0"/>
<stop offset="0.568072" stop-color="#0839E8" stop-opacity="0.28"/>
<stop offset="1" stop-color="#D727D0" stop-opacity="0.38"/>
</linearGradient>
<linearGradient id="paint7_linear_37_9" x1="442" y1="-68.9456" x2="430.208" y2="86.5323" gradientUnits="userSpaceOnUse">
<stop stop-color="#41F4FF" stop-opacity="0"/>
<stop offset="0.612286" stop-color="#0839E8" stop-opacity="0.22"/>
<stop offset="1" stop-color="#D727D0" stop-opacity="0.26"/>
</linearGradient>
<linearGradient id="paint8_linear_37_9" x1="339" y1="73.0545" x2="339" y2="353.054" gradientUnits="userSpaceOnUse">
<stop stop-color="#262626"/>
<stop offset="1" stop-color="#373737" stop-opacity="0"/>
</linearGradient>
<linearGradient id="paint9_linear_37_9" x1="339" y1="181" x2="339" y2="253" gradientUnits="userSpaceOnUse">
<stop stop-color="white"/>
<stop offset="1" stop-color="white" stop-opacity="0"/>
</linearGradient>
</defs>
</svg>
