<svg width="455" height="301" viewBox="0 0 455 301" fill="none" xmlns="http://www.w3.org/2000/svg">
<path d="M132.884 121.273L277.5 138.326L317.118 312.933L172.501 295.88L132.884 121.273Z" fill="url(#paint0_linear_40_62)"/>
<path d="M277.359 137.703L397.169 60.1908L436.927 235.421L317.118 312.933L277.359 137.703Z" fill="url(#paint1_linear_40_62)"/>
<g filter="url(#filter0_f_40_62)">
<mask id="path-3-inside-1_40_62" fill="white">
<path fill-rule="evenodd" clip-rule="evenodd" d="M413.08 36.4455C411.52 29.5708 403.527 26.4249 397.7 30.392L274.713 114.12C272.643 115.529 270.121 116.111 267.644 115.75L118.296 94.0054C111.349 92.9939 105.55 99.2677 107.103 106.114L151.965 303.833C152.88 307.867 156.184 310.92 160.276 311.516L317.248 334.371C319.725 334.731 322.248 334.15 324.317 332.741L453.804 244.588C457.202 242.275 458.838 238.118 457.928 234.109L413.08 36.4455Z"/>
</mask>
<path d="M453.804 244.588L452.116 242.108L453.804 244.588ZM317.248 334.371L316.816 337.34L317.248 334.371ZM324.317 332.741L322.628 330.262L324.317 332.741ZM160.276 311.516L160.709 308.548L160.276 311.516ZM274.713 114.12L276.401 116.6L274.713 114.12ZM267.644 115.75L268.077 112.781L267.644 115.75ZM276.401 116.6L399.388 32.8718L396.012 27.9121L273.024 111.641L276.401 116.6ZM117.864 96.9741L267.212 118.719L268.077 112.781L118.728 91.0367L117.864 96.9741ZM154.891 303.169L110.029 105.45L104.178 106.778L149.039 304.497L154.891 303.169ZM317.681 331.402L160.709 308.548L159.844 314.485L316.816 337.34L317.681 331.402ZM452.116 242.108L322.628 330.262L326.005 335.221L455.492 247.068L452.116 242.108ZM410.154 37.1093L455.003 234.773L460.854 233.445L416.005 35.7817L410.154 37.1093ZM455.492 247.068C459.909 244.06 462.037 238.656 460.854 233.445L455.003 234.773C455.64 237.579 454.494 240.489 452.116 242.108L455.492 247.068ZM316.816 337.34C320.036 337.808 323.315 337.052 326.005 335.221L322.628 330.262C321.18 331.248 319.414 331.655 317.681 331.402L316.816 337.34ZM149.039 304.497C150.229 309.74 154.524 313.71 159.844 314.485L160.709 308.548C157.844 308.13 155.531 305.993 154.891 303.169L149.039 304.497ZM118.728 91.0367C109.698 89.7218 102.158 97.8777 104.178 106.778L110.029 105.45C108.942 100.658 113.001 96.2661 117.864 96.9741L118.728 91.0367ZM399.388 32.8718C403.467 30.0949 409.062 32.297 410.154 37.1093L416.005 35.7817C413.977 26.8446 403.587 22.7549 396.012 27.9121L399.388 32.8718ZM273.024 111.641C271.576 112.627 269.81 113.034 268.077 112.781L267.212 118.719C270.432 119.187 273.711 118.432 276.401 116.6L273.024 111.641Z" fill="url(#paint2_linear_40_62)" fill-opacity="0.7" mask="url(#path-3-inside-1_40_62)"/>
</g>
<mask id="path-5-inside-2_40_62" fill="white">
<path fill-rule="evenodd" clip-rule="evenodd" d="M409.782 23.0559L271.571 117.22L104.077 92.7738L153.692 311.446L321.187 335.893L459.398 241.728L409.782 23.0559Z"/>
</mask>
<path d="M271.571 117.22L271.138 120.189L272.295 120.357L273.261 119.699L271.571 117.22ZM409.782 23.0559L412.708 22.3921L411.733 18.0966L408.093 20.5767L409.782 23.0559ZM104.077 92.7738L104.51 89.8053L100.183 89.1738L101.151 93.4376L104.077 92.7738ZM153.692 311.446L150.767 312.11L151.222 314.117L153.259 314.415L153.692 311.446ZM321.187 335.893L320.754 338.861L321.91 339.03L322.876 338.372L321.187 335.893ZM459.398 241.728L461.087 244.207L462.776 243.057L462.324 241.064L459.398 241.728ZM273.261 119.699L411.471 25.5352L408.093 20.5767L269.882 114.741L273.261 119.699ZM103.643 95.7424L271.138 120.189L272.005 114.252L104.51 89.8053L103.643 95.7424ZM156.618 310.782L107.002 92.11L101.151 93.4376L150.767 312.11L156.618 310.782ZM321.62 332.924L154.126 308.478L153.259 314.415L320.754 338.861L321.62 332.924ZM457.709 239.249L319.498 333.413L322.876 338.372L461.087 244.207L457.709 239.249ZM406.857 23.7197L456.472 242.392L462.324 241.064L412.708 22.3921L406.857 23.7197Z" fill="url(#paint3_linear_40_62)" mask="url(#path-5-inside-2_40_62)"/>
<path d="M238.342 197.45L237.935 197.741L238.568 198.627L238.827 197.569L238.342 197.45ZM230.997 187.161L231.404 186.87L230.832 186.069L230.522 187.003L230.997 187.161ZM223.647 209.324L223.22 209.585L223.782 210.504L224.122 209.482L223.647 209.324ZM202.557 174.825L202.983 174.565L202.52 173.807L202.113 174.596L202.557 174.825ZM192.727 193.851L192.335 194.161L192.815 194.769L193.171 194.081L192.727 193.851ZM165.323 163.062C165.649 164.499 167.077 165.399 168.514 165.073C169.95 164.747 170.85 163.318 170.524 161.882C170.198 160.446 168.77 159.546 167.334 159.872C165.897 160.198 164.997 161.626 165.323 163.062ZM244.77 171.226L245.216 170.999L244.605 169.797L244.284 171.106L244.77 171.226ZM272.571 227.1C272.696 227.346 272.997 227.445 273.243 227.32C273.489 227.195 273.587 226.894 273.462 226.647L272.571 227.1ZM238.749 197.16L231.404 186.87L230.59 187.451L237.935 197.741L238.749 197.16ZM230.522 187.003L223.172 209.167L224.122 209.482L231.471 187.318L230.522 187.003ZM224.074 209.063L202.983 174.565L202.13 175.086L223.22 209.585L224.074 209.063ZM202.113 174.596L192.283 193.622L193.171 194.081L203.001 175.055L202.113 174.596ZM193.119 193.541L168.316 162.162L167.531 162.782L192.335 194.161L193.119 193.541ZM238.827 197.569L245.255 171.345L244.284 171.106L237.856 197.331L238.827 197.569ZM244.324 171.452L272.571 227.1L273.462 226.647L245.216 170.999L244.324 171.452Z" fill="url(#paint4_linear_40_62)"/>
<g filter="url(#filter1_f_40_62)">
<ellipse cx="38.3959" cy="33.7476" rx="38.3959" ry="33.7476" transform="matrix(0.971624 -0.236533 0.237426 0.971406 249 135.164)" fill="url(#paint5_linear_40_62)" fill-opacity="0.96"/>
</g>
<ellipse cx="62.236" cy="60.4873" rx="62.236" ry="60.4873" transform="matrix(0.971624 -0.236533 0.237426 0.971406 260.539 135.59)" fill="url(#paint6_radial_40_62)"/>
<ellipse cx="62.236" cy="60.4873" rx="62.236" ry="60.4873" transform="matrix(0.971624 -0.236533 0.237426 0.971406 260.539 135.59)" fill="url(#paint7_radial_40_62)" fill-opacity="0.72"/>
<g filter="url(#filter2_f_40_62)">
<ellipse cx="14.9332" cy="13.6294" rx="14.9332" ry="13.6294" transform="matrix(0.75657 0.653913 -0.674093 0.738646 211.059 201.295)" fill="#A823BD" fill-opacity="0.96"/>
</g>
<ellipse cx="24.4841" cy="24.71" rx="24.4841" ry="24.71" transform="matrix(0.75657 0.653913 -0.674093 0.738646 211.942 209.345)" fill="url(#paint8_radial_40_62)" fill-opacity="0.55"/>
<defs>
<filter id="filter0_f_40_62" x="78.8494" y="0.650726" width="407.328" height="361.824" filterUnits="userSpaceOnUse" color-interpolation-filters="sRGB">
<feFlood flood-opacity="0" result="BackgroundImageFix"/>
<feBlend mode="normal" in="SourceGraphic" in2="BackgroundImageFix" result="shape"/>
<feGaussianBlur stdDeviation="14" result="effect1_foregroundBlur_40_62"/>
</filter>
<filter id="filter1_f_40_62" x="164.154" y="32.8385" width="260.33" height="252.052" filterUnits="userSpaceOnUse" color-interpolation-filters="sRGB">
<feFlood flood-opacity="0" result="BackgroundImageFix"/>
<feBlend mode="normal" in="SourceGraphic" in2="BackgroundImageFix" result="shape"/>
<feGaussianBlur stdDeviation="46" result="effect1_foregroundBlur_40_62"/>
</filter>
<filter id="filter2_f_40_62" x="0.606934" y="9.10245" width="425.125" height="424.05" filterUnits="userSpaceOnUse" color-interpolation-filters="sRGB">
<feFlood flood-opacity="0" result="BackgroundImageFix"/>
<feBlend mode="normal" in="SourceGraphic" in2="BackgroundImageFix" result="shape"/>
<feGaussianBlur stdDeviation="99" result="effect1_foregroundBlur_40_62"/>
</filter>
<linearGradient id="paint0_linear_40_62" x1="277.317" y1="137.517" x2="211.055" y2="190.86" gradientUnits="userSpaceOnUse">
<stop stop-color="#272727"/>
<stop offset="1" stop-color="#181818"/>
</linearGradient>
<linearGradient id="paint1_linear_40_62" x1="277.421" y1="137.973" x2="429.799" y2="244.295" gradientUnits="userSpaceOnUse">
<stop offset="0.0777181" stop-color="#212121"/>
<stop offset="0.62379" stop-color="#161616"/>
</linearGradient>
<linearGradient id="paint2_linear_40_62" x1="132.667" y1="155.852" x2="434.063" y2="267.29" gradientUnits="userSpaceOnUse">
<stop stop-color="#41F4FF"/>
<stop offset="0.50639" stop-color="#0839E8" stop-opacity="0.42"/>
<stop offset="1" stop-color="#D727D0" stop-opacity="0.38"/>
</linearGradient>
<linearGradient id="paint3_linear_40_62" x1="132.098" y1="153.396" x2="436.051" y2="262.622" gradientUnits="userSpaceOnUse">
<stop stop-color="#41F4FF"/>
<stop offset="0.50639" stop-color="#0839E8" stop-opacity="0.42"/>
<stop offset="1" stop-color="#D727D0" stop-opacity="0.38"/>
</linearGradient>
<linearGradient id="paint4_linear_40_62" x1="176.777" y1="178.113" x2="256.363" y2="182.521" gradientUnits="userSpaceOnUse">
<stop stop-color="white"/>
<stop offset="1" stop-color="white" stop-opacity="0"/>
</linearGradient>
<linearGradient id="paint5_linear_40_62" x1="55.5445" y1="19.3142" x2="16.5803" y2="42.4316" gradientUnits="userSpaceOnUse">
<stop stop-color="#4F95FF"/>
<stop offset="1" stop-color="#C74FFF"/>
</linearGradient>
<radialGradient id="paint6_radial_40_62" cx="0" cy="0" r="1" gradientUnits="userSpaceOnUse" gradientTransform="translate(37.0224 12.7178) rotate(65.4436) scale(101.793 189.204)">
<stop stop-color="#F07DF2"/>
<stop offset="0.135765" stop-color="#B05AB8"/>
<stop offset="0.315115" stop-color="#890E9D"/>
<stop offset="0.450379" stop-color="#5F2860"/>
<stop offset="0.559772" stop-color="#4E1753" stop-opacity="0.72"/>
<stop offset="0.694537" stop-color="#290230" stop-opacity="0.46"/>
<stop offset="0.858156" stop-color="#2B152F" stop-opacity="0"/>
</radialGradient>
<radialGradient id="paint7_radial_40_62" cx="0" cy="0" r="1" gradientUnits="userSpaceOnUse" gradientTransform="translate(37.0224 12.7179) rotate(60.8739) scale(103.477 187.809)">
<stop offset="0.0309006" stop-color="#7DCFF2"/>
<stop offset="0.259269" stop-color="#655999"/>
<stop offset="0.338268" stop-color="#504B75"/>
<stop offset="0.468986" stop-color="#433554"/>
<stop offset="0.603879" stop-color="#2F243E"/>
<stop offset="0.739911" stop-color="#2A1E33" stop-opacity="0.75"/>
<stop offset="1" stop-color="#31002C" stop-opacity="0"/>
</radialGradient>
<radialGradient id="paint8_radial_40_62" cx="0" cy="0" r="1" gradientUnits="userSpaceOnUse" gradientTransform="translate(14.5649 5.19544) rotate(61.523) scale(44.6454 79.4047)">
<stop offset="0.0309006" stop-color="#B17DF2"/>
<stop offset="0.202293" stop-color="#77529B"/>
<stop offset="0.338268" stop-color="#5D4B75"/>
<stop offset="0.468986" stop-color="#483554"/>
<stop offset="0.603879" stop-color="#37243E"/>
<stop offset="0.817395" stop-color="#2A1E33" stop-opacity="0.75"/>
<stop offset="1" stop-color="#270031" stop-opacity="0"/>
</radialGradient>
</defs>
</svg>
